<svg xmlns="http://www.w3.org/2000/svg" viewBox="0 0 64 64">
  <defs>
    <linearGradient id="g" x1="0" y1="0" x2="64" y2="64" gradientUnits="userSpaceOnUse">
      <stop stop-color="#165DFF"/>
      <stop offset="1" stop-color="#36B37E"/>
    </linearGradient>
  </defs>
  <rect rx="12" width="64" height="64" fill="url(#g)"/>
  <path d="M20 44c-2.2 0-4-1.8-4-4V24c0-2.2 1.8-4 4-4h12.5a5.5 5.5 0 0 1 5.5 5.5V28h6c2.2 0 4 1.8 4 4v8c0 2.2-1.8 4-4 4H20Zm6.5-6.5h3v-3h3v-3h-3v-3h-3v3h-3v3h3v3Z" fill="#fff"/>
</svg>

